# xmcd
#
# Track frame offsets:
#	150
#	19729
#	42286
#	61960
#	77251
#	95048
#	114520
#	127649
#	144649
#	167443
#
# Disc length: 2433 seconds
#
# Revision: 0
# Processed by: cddbd v1.4PL0 Copyright (c) Steve Scherf et al.
# Submitted via: dBpowerAMP V4.0
#
DISCID=73097f0a
DTITLE=Barry Van Wie - Scuffle Shuffle Blues
DYEAR=1900
DGENRE=Blues
TTITLE0=So Excited
TTITLE1=Mary Had a Little Lamb
TTITLE2=Blue Jean the Dancin Queen
TTITLE3=Low Rider
TTITLE4=Pink Panther
TTITLE5=School of Hard Knocks
TTITLE6=Scuffle Shuffle
TTITLE7=Change It
TTITLE8=Freemont Street Blues
TTITLE9=Shaky Ground
EXTD=
EXTT0=
EXTT1=
EXTT2=
EXTT3=
EXTT4=
EXTT5=
EXTT6=
EXTT7=
EXTT8=
EXTT9=
PLAYORDER=
